<svg width="159" height="41" viewBox="0 0 159 41" fill="none" xmlns="http://www.w3.org/2000/svg">
<path d="M2.52 32V6.08H12.798C14.55 6.08 15.984 6.434 17.1 7.142C18.228 7.838 19.062 8.732 19.602 9.824C20.154 10.916 20.43 12.044 20.43 13.208C20.43 14.636 20.088 15.848 19.404 16.844C18.732 17.84 17.814 18.512 16.65 18.86V17.96C18.282 18.332 19.518 19.106 20.358 20.282C21.21 21.458 21.636 22.796 21.636 24.296C21.636 25.832 21.342 27.176 20.754 28.328C20.166 29.48 19.29 30.38 18.126 31.028C16.974 31.676 15.546 32 13.842 32H2.52ZM6.912 27.914H13.302C14.058 27.914 14.736 27.764 15.336 27.464C15.936 27.152 16.404 26.72 16.74 26.168C17.088 25.604 17.262 24.938 17.262 24.17C17.262 23.474 17.112 22.85 16.812 22.298C16.512 21.746 16.074 21.308 15.498 20.984C14.922 20.648 14.232 20.48 13.428 20.48H6.912V27.914ZM6.912 16.43H12.744C13.368 16.43 13.926 16.31 14.418 16.07C14.91 15.83 15.3 15.476 15.588 15.008C15.876 14.54 16.02 13.964 16.02 13.28C16.02 12.38 15.732 11.63 15.156 11.03C14.58 10.43 13.776 10.13 12.744 10.13H6.912V16.43ZM29.1669 32.54C27.7629 32.54 26.5749 32.276 25.6029 31.748C24.6309 31.208 23.8929 30.494 23.3889 29.606C22.8969 28.718 22.6509 27.74 22.6509 26.672C22.6509 25.736 22.8069 24.896 23.1189 24.152C23.4309 23.396 23.9109 22.748 24.5589 22.208C25.2069 21.656 26.0469 21.206 27.0789 20.858C27.8589 20.606 28.7709 20.378 29.8149 20.174C30.8709 19.97 32.0109 19.784 33.2349 19.616C34.4709 19.436 35.7609 19.244 37.1049 19.04L35.5569 19.922C35.5689 18.578 35.2689 17.588 34.6569 16.952C34.0449 16.316 33.0129 15.998 31.5609 15.998C30.6849 15.998 29.8389 16.202 29.0229 16.61C28.2069 17.018 27.6369 17.72 27.3129 18.716L23.3529 17.474C23.8329 15.83 24.7449 14.51 26.0889 13.514C27.4449 12.518 29.2689 12.02 31.5609 12.02C33.2889 12.02 34.8069 12.302 36.1149 12.866C37.4349 13.43 38.4129 14.354 39.0489 15.638C39.3969 16.322 39.6069 17.024 39.6789 17.744C39.7509 18.452 39.7869 19.226 39.7869 20.066V32H35.9889V27.788L36.6189 28.472C35.7429 29.876 34.7169 30.908 33.5409 31.568C32.3769 32.216 30.9189 32.54 29.1669 32.54ZM30.0309 29.084C31.0149 29.084 31.8549 28.91 32.5509 28.562C33.2469 28.214 33.7989 27.788 34.2069 27.284C34.6269 26.78 34.9089 26.306 35.0529 25.862C35.2809 25.31 35.4069 24.68 35.4309 23.972C35.4669 23.252 35.4849 22.67 35.4849 22.226L36.8169 22.622C35.5089 22.826 34.3869 23.006 33.4509 23.162C32.5149 23.318 31.7109 23.468 31.0389 23.612C30.3669 23.744 29.7729 23.894 29.2569 24.062C28.7529 24.242 28.3269 24.452 27.9789 24.692C27.6309 24.932 27.3609 25.208 27.1689 25.52C26.9889 25.832 26.8989 26.198 26.8989 26.618C26.8989 27.098 27.0189 27.524 27.2589 27.896C27.4989 28.256 27.8469 28.544 28.3029 28.76C28.7709 28.976 29.3469 29.084 30.0309 29.084ZM42.9731 32V12.56H46.8071V17.294L46.3391 16.682C46.5791 16.034 46.8971 15.446 47.2931 14.918C47.7011 14.378 48.1871 13.934 48.7511 13.586C49.2311 13.262 49.7591 13.01 50.3351 12.83C50.9231 12.638 51.5231 12.524 52.1351 12.488C52.7471 12.44 53.3411 12.464 53.9171 12.56V16.61C53.3411 16.442 52.6751 16.388 51.9191 16.448C51.1751 16.508 50.5031 16.718 49.9031 17.078C49.3031 17.402 48.8111 17.816 48.4271 18.32C48.0551 18.824 47.7791 19.4 47.5991 20.048C47.4191 20.684 47.3291 21.374 47.3291 22.118V32H42.9731ZM67.246 32C65.962 32.24 64.702 32.342 63.466 32.306C62.242 32.282 61.144 32.06 60.172 31.64C59.2 31.208 58.462 30.53 57.958 29.606C57.514 28.766 57.28 27.908 57.256 27.032C57.232 26.156 57.22 25.166 57.22 24.062V7.16H61.54V23.81C61.54 24.59 61.546 25.274 61.558 25.862C61.582 26.45 61.708 26.93 61.936 27.302C62.368 28.022 63.058 28.424 64.006 28.508C64.954 28.592 66.034 28.544 67.246 28.364V32ZM53.692 15.962V12.56H67.246V15.962H53.692ZM77.7799 32.54C75.8119 32.54 74.0839 32.114 72.5959 31.262C71.1079 30.41 69.9439 29.228 69.1039 27.716C68.2759 26.204 67.8619 24.464 67.8619 22.496C67.8619 20.372 68.2699 18.53 69.0859 16.97C69.9019 15.398 71.0359 14.18 72.4879 13.316C73.9399 12.452 75.6199 12.02 77.5279 12.02C79.5439 12.02 81.2539 12.494 82.6579 13.442C84.0739 14.378 85.1239 15.704 85.8079 17.42C86.4919 19.136 86.7499 21.158 86.5819 23.486H82.2799V21.902C82.2679 19.79 81.8959 18.248 81.1639 17.276C80.4319 16.304 79.2799 15.818 77.7079 15.818C75.9319 15.818 74.6119 16.37 73.7479 17.474C72.8839 18.566 72.4519 20.168 72.4519 22.28C72.4519 24.248 72.8839 25.772 73.7479 26.852C74.6119 27.932 75.8719 28.472 77.5279 28.472C78.5959 28.472 79.5139 28.238 80.2819 27.77C81.0619 27.29 81.6619 26.6 82.0819 25.7L86.3659 26.996C85.6219 28.748 84.4699 30.11 82.9099 31.082C81.3619 32.054 79.6519 32.54 77.7799 32.54ZM71.0839 23.486V20.21H84.4579V23.486H71.0839ZM89.0981 32V12.56H92.9321V17.294L92.4641 16.682C92.7041 16.034 93.0221 15.446 93.4181 14.918C93.8261 14.378 94.3121 13.934 94.8761 13.586C95.3561 13.262 95.8841 13.01 96.4601 12.83C97.0481 12.638 97.6481 12.524 98.2601 12.488C98.8721 12.44 99.4661 12.464 100.042 12.56V16.61C99.4661 16.442 98.8001 16.388 98.0441 16.448C97.3001 16.508 96.6281 16.718 96.0281 17.078C95.4281 17.402 94.9361 17.816 94.5521 18.32C94.1801 18.824 93.9041 19.4 93.7241 20.048C93.5441 20.684 93.4541 21.374 93.4541 22.118V32H89.0981Z" fill="#101913"/>
<path d="M101.977 32V6.08H112.255C114.007 6.08 115.441 6.434 116.557 7.142C117.685 7.838 118.519 8.732 119.059 9.824C119.611 10.916 119.887 12.044 119.887 13.208C119.887 14.636 119.545 15.848 118.861 16.844C118.189 17.84 117.271 18.512 116.107 18.86V17.96C117.739 18.332 118.975 19.106 119.815 20.282C120.667 21.458 121.093 22.796 121.093 24.296C121.093 25.832 120.799 27.176 120.211 28.328C119.623 29.48 118.747 30.38 117.583 31.028C116.431 31.676 115.003 32 113.299 32H101.977ZM106.369 27.914H112.759C113.515 27.914 114.193 27.764 114.793 27.464C115.393 27.152 115.861 26.72 116.197 26.168C116.545 25.604 116.719 24.938 116.719 24.17C116.719 23.474 116.569 22.85 116.269 22.298C115.969 21.746 115.531 21.308 114.955 20.984C114.379 20.648 113.689 20.48 112.885 20.48H106.369V27.914ZM106.369 16.43H112.201C112.825 16.43 113.383 16.31 113.875 16.07C114.367 15.83 114.757 15.476 115.045 15.008C115.333 14.54 115.477 13.964 115.477 13.28C115.477 12.38 115.189 11.63 114.613 11.03C114.037 10.43 113.233 10.13 112.201 10.13H106.369V16.43ZM128.624 32.54C127.22 32.54 126.032 32.276 125.06 31.748C124.088 31.208 123.35 30.494 122.846 29.606C122.354 28.718 122.108 27.74 122.108 26.672C122.108 25.736 122.264 24.896 122.576 24.152C122.888 23.396 123.368 22.748 124.016 22.208C124.664 21.656 125.504 21.206 126.536 20.858C127.316 20.606 128.228 20.378 129.272 20.174C130.328 19.97 131.468 19.784 132.692 19.616C133.928 19.436 135.218 19.244 136.562 19.04L135.014 19.922C135.026 18.578 134.726 17.588 134.114 16.952C133.502 16.316 132.47 15.998 131.018 15.998C130.142 15.998 129.296 16.202 128.48 16.61C127.664 17.018 127.094 17.72 126.77 18.716L122.81 17.474C123.29 15.83 124.202 14.51 125.546 13.514C126.902 12.518 128.726 12.02 131.018 12.02C132.746 12.02 134.264 12.302 135.572 12.866C136.892 13.43 137.87 14.354 138.506 15.638C138.854 16.322 139.064 17.024 139.136 17.744C139.208 18.452 139.244 19.226 139.244 20.066V32H135.446V27.788L136.076 28.472C135.2 29.876 134.174 30.908 132.998 31.568C131.834 32.216 130.376 32.54 128.624 32.54ZM129.488 29.084C130.472 29.084 131.312 28.91 132.008 28.562C132.704 28.214 133.256 27.788 133.664 27.284C134.084 26.78 134.366 26.306 134.51 25.862C134.738 25.31 134.864 24.68 134.888 23.972C134.924 23.252 134.942 22.67 134.942 22.226L136.274 22.622C134.966 22.826 133.844 23.006 132.908 23.162C131.972 23.318 131.168 23.468 130.496 23.612C129.824 23.744 129.23 23.894 128.714 24.062C128.21 24.242 127.784 24.452 127.436 24.692C127.088 24.932 126.818 25.208 126.626 25.52C126.446 25.832 126.356 26.198 126.356 26.618C126.356 27.098 126.476 27.524 126.716 27.896C126.956 28.256 127.304 28.544 127.76 28.76C128.228 28.976 128.804 29.084 129.488 29.084ZM143.896 40.64L147.64 30.362L147.712 33.386L139.234 12.56H143.752L149.764 27.968H148.612L154.462 12.56H158.8L147.964 40.64H143.896Z" fill="#3C9379"/>
</svg>
